<svg width="12" height="12" fill="none" xmlns="http://www.w3.org/2000/svg"><path fill-rule="evenodd" clip-rule="evenodd" d="M5.996 1.935c1.042 0 2.023.388 2.78 1.096l-1.01 1.01a.58.58 0 00.41.991h3.243c.321 0 .581-.26.581-.58V1.208a.58.58 0 00-.991-.41l-.864.864A6.002 6.002 0 00.105 4.883a.29.29 0 00.285.343h1.386c.134 0 .25-.092.282-.222a4.07 4.07 0 013.938-3.069zM3.824 6.968H.581a.58.58 0 00-.581.58v3.244a.58.58 0 00.991.41l.864-.864a6.002 6.002 0 0010.04-3.221.29.29 0 00-.285-.343h-1.386a.291.291 0 00-.282.222 4.07 4.07 0 01-3.938 3.069 4.035 4.035 0 01-2.78-1.096l1.01-1.01a.58.58 0 00-.41-.991z" fill="#262626"/></svg>