<svg width="15" height="13" fill="none" xmlns="http://www.w3.org/2000/svg"><path fill-rule="evenodd" clip-rule="evenodd" d="M8.2 4.694v-3.61C8.2.484 8.685 0 9.283 0h4.574c.599 0 1.084.485 1.084 1.083v3.611c0 .599-.485 1.084-1.084 1.084H9.283A1.083 1.083 0 018.2 4.694zM6.755 8.306v3.61c0 .599-.485 1.084-1.083 1.084H1.098a1.083 1.083 0 01-1.083-1.083V8.306c0-.599.485-1.084 1.083-1.084h4.574c.598 0 1.083.485 1.083 1.084zm0-3.612v-3.61C6.755.484 6.27 0 5.672 0H1.098C.5 0 .015.485.015 1.083v3.611c0 .599.485 1.084 1.083 1.084h4.574c.598 0 1.083-.485 1.083-1.084zM13.857 13H9.283A1.083 1.083 0 018.2 11.917V8.306c0-.599.485-1.084 1.083-1.084h4.574c.599 0 1.084.485 1.084 1.084v3.61c0 .599-.485 1.084-1.084 1.084z" fill="#fff"/></svg>