<svg width="15" height="13" viewBox="0 0 15 13" fill="none" xmlns="http://www.w3.org/2000/svg">
<path d="M4 12.4375V10.5625C4 10.2518 3.71219 10 3.35715 10H0.642854C0.287811 10 0 10.2518 0 10.5625V12.4375C0 12.7482 0.287811 13 0.642854 13H3.35712C3.71219 13 4 12.7482 4 12.4375Z" fill="#737373"/>
<path d="M5.94141 0.5625V2.4375C5.94141 2.74816 6.58899 3 7.38784 3H13.495C14.2938 3 14.9414 2.74816 14.9414 2.4375V0.5625C14.9414 0.251836 14.2938 0 13.495 0H7.38784C6.58899 0 5.94141 0.251836 5.94141 0.5625H5.94141Z" fill="#737373"/>
<path d="M4 2.4375V0.5625C4 0.251836 3.71219 0 3.35715 0H0.642854C0.287811 0 0 0.251836 0 0.5625V2.4375C0 2.74816 0.287811 3 0.642854 3H3.35712C3.71219 3 4 2.74816 4 2.4375Z" fill="#737373"/>
<path d="M4 7.4375V5.5625C4 5.25184 3.71219 5 3.35715 5H0.642854C0.287811 5 0 5.25184 0 5.5625V7.4375C0 7.74816 0.287811 8 0.642854 8H3.35712C3.71219 8 4 7.74816 4 7.4375Z" fill="#737373"/>
<path d="M7.38784 8H13.495C14.2938 8 14.9414 7.74816 14.9414 7.4375V5.5625C14.9414 5.25184 14.2938 5 13.495 5H7.38784C6.58899 5 5.94141 5.25184 5.94141 5.5625V7.4375C5.94141 7.74816 6.58899 8 7.38784 8Z" fill="#737373"/>
<path d="M7.38784 13H13.495C14.2938 13 14.9414 12.7482 14.9414 12.4375V10.5625C14.9414 10.2518 14.2938 10 13.495 10H7.38784C6.58899 10 5.94141 10.2518 5.94141 10.5625V12.4375C5.94141 12.7482 6.58899 13 7.38784 13Z" fill="#737373"/>
</svg>
