<svg width="11" height="10" viewBox="0 0 11 10" fill="none" xmlns="http://www.w3.org/2000/svg">
<path d="M9.78571 3.92857H6.57143V0.714286C6.57143 0.319866 6.25156 0 5.85714 0H5.14286C4.74844 0 4.42857 0.319866 4.42857 0.714286V3.92857H1.21429C0.819866 3.92857 0.5 4.24844 0.5 4.64286V5.35714C0.5 5.75156 0.819866 6.07143 1.21429 6.07143H4.42857V9.28571C4.42857 9.68013 4.74844 10 5.14286 10H5.85714C6.25156 10 6.57143 9.68013 6.57143 9.28571V6.07143H9.78571C10.1801 6.07143 10.5 5.75156 10.5 5.35714V4.64286C10.5 4.24844 10.1801 3.92857 9.78571 3.92857Z" fill="#767676"/>
</svg>
