<svg width="20" height="20" fill="none" xmlns="http://www.w3.org/2000/svg"><path d="M9.982 0a9.966 9.966 0 00-6.89 2.77l-1.44-1.44C1.042.72 0 1.151 0 2.013v5.405c0 .535.433.968.968.968h5.405c.863 0 1.294-1.042.685-1.652L5.374 5.052A6.725 6.725 0 019.94 3.226c3.726-.032 6.866 2.983 6.834 6.832-.03 3.652-2.991 6.716-6.774 6.716A6.724 6.724 0 015.54 15.1a.483.483 0 00-.66.022l-1.6 1.6a.485.485 0 00.02.702A9.964 9.964 0 0010 20c5.523 0 10-4.477 10-10C20 4.484 15.498-.01 9.982 0z" fill="#262626"/></svg>