<svg width="16" height="16" fill="none" xmlns="http://www.w3.org/2000/svg"><path fill-rule="evenodd" clip-rule="evenodd" d="M12.64 10.698l3.11 3.11c.29.293.29.767-.003 1.06l-.882.883a.745.745 0 01-1.058 0l-3.11-3.11a.748.748 0 01-.217-.53v-.509a6.455 6.455 0 01-3.993 1.373A6.486 6.486 0 010 6.487 6.486 6.486 0 016.487 0a6.486 6.486 0 016.488 6.487 6.455 6.455 0 01-1.373 3.992h.509c.2 0 .39.079.53.219zM2.496 6.488a3.99 3.99 0 003.992 3.991 3.99 3.99 0 003.992-3.992 3.99 3.99 0 00-3.992-3.992 3.99 3.99 0 00-3.992 3.992z" fill="#262626"/></svg>