<svg width="25" height="20" fill="none" xmlns="http://www.w3.org/2000/svg"><path fill-rule="evenodd" clip-rule="evenodd" d="M23.75 13.75h.625c.344 0 .625.281.625.625v1.25a.627.627 0 01-.625.625H22.5a3.751 3.751 0 01-7.5 0h-5a3.751 3.751 0 01-7.5 0h-.625A1.875 1.875 0 010 14.375v-12.5C0 .84.84 0 1.875 0h12.5c1.035 0 1.875.84 1.875 1.875V3.75h1.723c.496 0 .972.2 1.324.55l3.902 3.903c.352.352.551.828.551 1.324v4.223zm-19.375 2.5a1.875 1.875 0 103.75 0 1.875 1.875 0 00-3.75 0zm14.375 1.875a1.875 1.875 0 110-3.75 1.875 1.875 0 010 3.75zM16.25 10h5.625v-.473l-3.902-3.902H16.25V10z" fill="#262626"/></svg>