<svg width="14" height="20" fill="none" xmlns="http://www.w3.org/2000/svg"><path d="M.44 20v-2.604c1.195-.99 2.357-1.97 3.486-2.94a37.795 37.795 0 003.024-2.884c.887-.952 1.596-1.88 2.128-2.786.532-.905.798-1.787.798-2.646 0-.803-.219-1.512-.658-2.128-.438-.616-1.162-.924-2.17-.924-1.026 0-1.8.336-2.324 1.008-.522.672-.784 1.484-.784 2.436H.468c.038-1.437.355-2.637.952-3.598A5.635 5.635 0 013.8.778C4.79.302 5.9.064 7.132.064c1.998 0 3.552.546 4.662 1.638 1.111 1.092 1.666 2.506 1.666 4.242a7.212 7.212 0 01-.742 3.164 14.111 14.111 0 01-1.946 2.968 26.083 26.083 0 01-2.604 2.674c-.933.83-1.838 1.6-2.716 2.31h8.484V20H.44z" fill="#262626"/></svg>