<svg width="66" height="16" fill="none" xmlns="http://www.w3.org/2000/svg"><path fill-rule="evenodd" clip-rule="evenodd" d="M3.518 14.238c1.099.644 2.383.966 3.853.966 1.456 0 2.737-.322 3.843-.966a6.743 6.743 0 002.583-2.678c.616-1.14.924-2.46.924-3.958 0-1.498-.308-2.817-.924-3.959A6.743 6.743 0 0011.214.966C10.108.322 8.827 0 7.371 0c-1.47 0-2.754.322-3.854.966A6.838 6.838 0 00.934 3.644C.311 4.784 0 6.104 0 7.602 0 9.1.311 10.419.934 11.56a6.838 6.838 0 002.583 2.678zm7.202-2.835c-.833.924-1.949 1.386-3.349 1.386-1.4 0-2.52-.462-3.36-1.386-.84-.924-1.26-2.191-1.26-3.801 0-1.61.42-2.877 1.26-3.801.84-.924 1.96-1.386 3.36-1.386s2.516.462 3.35 1.386c.832.924 1.249 2.191 1.249 3.801 0 1.61-.417 2.877-1.25 3.801zM17.095.252h5.397c1.176 0 2.146.2 2.909.599.763.399 1.333.938 1.711 1.616.378.68.567 1.432.567 2.258 0 .896-.235 1.715-.704 2.457-.468.742-1.2 1.281-2.194 1.617l3.045 6.153h-3.087l-2.73-5.796h-2.226v5.796h-2.688V.252zm5.229 6.93h-2.541V2.499h2.52c.924 0 1.593.21 2.006.63.413.42.619.98.619 1.68 0 .714-.21 1.288-.63 1.722-.42.434-1.078.651-1.974.651zm7.854-6.93h9.597v2.163h-6.909v4.032h6.279v2.1h-6.279v4.242h6.909v2.163h-9.597V.252zm18.039 0h-5.901v14.7h6.111c1.54 0 2.73-.378 3.57-1.134.84-.756 1.26-1.715 1.26-2.877 0-.882-.273-1.655-.819-2.32a3.505 3.505 0 00-2.079-1.25 3.718 3.718 0 001.817-1.124c.497-.553.745-1.291.745-2.215 0-1.106-.403-2.013-1.208-2.72-.805-.707-1.97-1.06-3.496-1.06zm-3.213 6.174h2.814c.756 0 1.337-.175 1.743-.525.406-.35.609-.847.609-1.491 0-.616-.2-1.103-.598-1.46-.4-.357-.998-.535-1.796-.535h-2.772v4.011zm3.003 6.342h-3.003V8.442h2.961c.784 0 1.407.196 1.869.588.462.392.693.931.693 1.617 0 .672-.22 1.194-.662 1.564-.44.371-1.06.557-1.858.557zM55.566.252h2.688v14.7h-2.688V.252zm6.074-.09c.137 0 .255.05.354.149.1.1.15.219.15.359 0 .133-.05.25-.147.349a.476.476 0 01-.352.149.49.49 0 01-.359-.149.49.49 0 01-.149-.359c0-.133.05-.25.15-.349.098-.1.216-.149.353-.149zm2.886 0a.47.47 0 01.349.142c.093.094.14.213.14.356s-.05.264-.15.361a.499.499 0 01-.364.147.492.492 0 01-.356-.132.46.46 0 01-.137-.347.517.517 0 01.518-.527zm-2.524 2.981A.49.49 0 0061.645 3a.487.487 0 00-.359.144.481.481 0 00-.144.354.49.49 0 00.147.361.485.485 0 00.356.147c.14 0 .259-.05.356-.149a.5.5 0 00.147-.364.472.472 0 00-.147-.349zm2.49-.14c.14-.006.26.04.361.138.1.097.151.218.151.36 0 .144-.05.265-.151.362a.513.513 0 01-.371.147c-.322 0-.483-.161-.483-.484a.497.497 0 01.493-.522z" fill="#262626"/></svg>
